<?xml version="1.0" standalone="no"?>
<?xml version="1.0" standalone="no"?>
<!DOCTYPE svg PUBLIC "-//W3C//DTD SVG 20010904//EN"
 "http://www.w3.org/TR/2001/REC-SVG-20010904/DTD/svg10.dtd">
<svg version="1.0" xmlns="http://www.w3.org/2000/svg"
 width="499.000000pt" height="499.000000pt" viewBox="0 0 499.000000 499.000000"
 preserveAspectRatio="xMidYMid meet">

<g transform="translate(0.000000,499.000000) scale(0.100000,-0.100000)"
fill="#000000" stroke="none">
<path d="M1187 4170 c-50 -15 -127 -72 -157 -115 -56 -82 -62 -108 -63 -313
l-2 -188 -90 -90 c-107 -105 -196 -225 -262 -355 -93 -179 -124 -314 -122
-529 l1 -105 14 60 c90 378 291 640 659 862 297 179 695 333 1060 409 332 69
485 86 790 87 225 0 393 -14 532 -44 107 -23 297 -83 330 -105 12 -8 28 -14
34 -14 19 0 189 -108 247 -158 l54 -45 -4 204 c-5 232 -13 268 -79 343 -21 24
-60 57 -87 73 l-47 28 -1390 2 c-765 1 -1403 -2 -1418 -7z"/>
<path d="M2865 3523 c-502 -56 -986 -201 -1340 -402 -158 -89 -383 -253 -517
-376 l-47 -44 4 -853 c3 -469 7 -894 10 -944 5 -100 43 -229 91 -312 44 -74
168 -182 210 -182 4 0 -20 28 -52 63 -81 85 -100 114 -137 210 -30 78 -31 89
-32 227 0 134 2 153 33 258 103 360 298 658 622 950 378 342 863 588 1358 687
49 10 41 -15 -14 -44 -131 -70 -372 -229 -548 -361 -180 -136 -201 -154 -391
-345 -276 -275 -438 -507 -563 -805 -53 -127 -106 -300 -95 -311 6 -6 537 -8
1254 -7 l1244 3 55 22 c34 14 73 41 102 70 94 98 98 117 98 563 l0 364 85 171
c84 169 147 336 178 470 21 89 33 256 27 360 l-5 80 -12 -92 c-48 -353 -246
-611 -653 -855 -307 -183 -782 -348 -1307 -453 -205 -41 -399 -75 -428 -75
-20 1 -20 1 0 15 10 9 33 19 50 24 16 5 86 29 155 54 441 159 846 347 1114
517 272 173 457 352 544 526 50 99 64 164 60 268 -3 79 -7 100 -35 157 -81
163 -218 278 -409 344 -121 41 -234 56 -454 60 -118 1 -233 1 -255 -2z"/>
</g>
</svg>
